<?xml version="1.0" encoding="UTF-8" standalone="no"?>
<!DOCTYPE svg PUBLIC "-//W3C//DTD SVG 1.1//EN" "http://www.w3.org/Graphics/SVG/1.1/DTD/svg11.dtd">
<svg width="100%" height="100%" viewBox="0 0 504 549" version="1.1" xmlns="http://www.w3.org/2000/svg" xmlns:xlink="http://www.w3.org/1999/xlink" xml:space="preserve" xmlns:serif="http://www.serif.com/" style="fill-rule:evenodd;clip-rule:evenodd;stroke-linejoin:round;stroke-miterlimit:2;">
    <g transform="matrix(1,0,0,1,-692.797,-254.067)">
        <g id="block" transform="matrix(1,0,0,1,13.4075,-2.70524)">
            <g transform="matrix(0.941897,0.335903,-0.335903,0.941897,232.565,-233.783)">
                <path d="M699.637,605.904L774.612,512.304L889.724,538.114L816.057,628.517L699.637,605.904Z" style="fill:rgb(233,77,109);"/>
            </g>
            <g transform="matrix(0.210016,0.977698,-0.977698,0.210016,1118.49,-222.379)">
                <path d="M701.566,599.821L781.098,514.941L890.287,538.395L813.801,623.93L701.566,599.821Z" style="fill:rgb(233,77,109);"/>
            </g>
            <g transform="matrix(-0.216347,0.976317,0.976317,0.216347,475.561,-223.948)">
                <path d="M702.688,588.935L782.107,508.531L890.936,532.647L815.402,613.912L702.688,588.935Z" style="fill:rgb(233,77,109);"/>
            </g>
        </g>
        <g id="block1" serif:id="block" transform="matrix(1,0,0,1,297.735,-2.70524)">
            <g transform="matrix(0.941897,0.335903,-0.335903,0.941897,232.565,-233.783)">
                <path d="M699.637,605.904L774.612,512.304L889.724,538.114L816.057,628.517L699.637,605.904Z" style="fill:rgb(233,77,109);"/>
            </g>
            <g transform="matrix(0.210016,0.977698,-0.977698,0.210016,1118.49,-222.379)">
                <path d="M701.566,599.821L781.098,514.941L890.287,538.395L813.801,623.93L701.566,599.821Z" style="fill:rgb(233,77,109);"/>
            </g>
            <g transform="matrix(-0.216347,0.976317,0.976317,0.216347,475.561,-223.948)">
                <path d="M702.688,588.935L782.107,508.531L890.936,532.647L815.402,613.912L702.688,588.935Z" style="fill:rgb(233,77,109);"/>
            </g>
        </g>
        <g id="block2" serif:id="block" transform="matrix(1,0,0,1,153.399,-254.881)">
            <g transform="matrix(0.941897,0.335903,-0.335903,0.941897,232.565,-233.783)">
                <path d="M699.637,605.904L774.612,512.304L889.724,538.114L816.057,628.517L699.637,605.904Z" style="fill:rgb(233,77,109);"/>
            </g>
            <g transform="matrix(0.210016,0.977698,-0.977698,0.210016,1118.49,-222.379)">
                <path d="M701.566,599.821L781.098,514.941L890.287,538.395L813.801,623.93L701.566,599.821Z" style="fill:rgb(233,77,109);"/>
            </g>
            <g transform="matrix(-0.216347,0.976317,0.976317,0.216347,475.561,-223.948)">
                <path d="M702.688,588.935L782.107,508.531L890.936,532.647L815.402,613.912L702.688,588.935Z" style="fill:rgb(233,77,109);"/>
            </g>
        </g>
        <g transform="matrix(1,0,0,1,9.23657,0)">
            <path d="M721.122,519.601L753.529,498.513L753.529,442.194L796.263,407.308L796.263,368.796L721.122,427.636L721.122,519.601Z" style="fill:rgb(233,77,109);"/>
        </g>
        <g transform="matrix(-1,0,0,1,1874.28,0)">
            <path d="M721.122,519.601L753.529,498.513L753.529,442.194L796.263,407.308L796.263,368.796L721.122,427.636L721.122,519.601Z" style="fill:rgb(233,77,109);"/>
        </g>
        <g transform="matrix(0.429823,-0.902913,-0.902913,-0.429823,1018.15,1637.23)">
            <path d="M721.122,519.601L753.529,498.513L753.529,442.194L796.263,407.308L793.526,367.504L721.122,427.636L721.122,519.601Z" style="fill:rgb(233,77,109);"/>
        </g>
    </g>
</svg>
