<?xml version="1.0" encoding="UTF-8" standalone="no"?>
<!DOCTYPE svg PUBLIC "-//W3C//DTD SVG 1.1//EN" "http://www.w3.org/Graphics/SVG/1.1/DTD/svg11.dtd">
<svg width="100%" height="100%" viewBox="0 0 110 123" version="1.1" xmlns="http://www.w3.org/2000/svg" xmlns:xlink="http://www.w3.org/1999/xlink" xml:space="preserve" xmlns:serif="http://www.serif.com/" style="fill-rule:evenodd;clip-rule:evenodd;stroke-linejoin:round;stroke-miterlimit:2;">
    <path d="M34.43,47.86L52.8,37.6L52.8,18.31C50.666,17.93 48.732,16.811 47.34,15.15L17.91,32.18C18.26,33.16 18.45,34.21 18.45,35.31C18.45,36.23 18.32,37.11 18.07,37.95L34.43,47.86ZM45.78,12.48C45.39,11.441 45.19,10.34 45.19,9.23C45.19,6.68 46.22,4.37 47.89,2.7C49.56,1.03 51.87,0 54.42,0C56.97,0 59.28,1.03 60.95,2.7C62.682,4.43 63.655,6.782 63.65,9.23C63.65,10.35 63.45,11.42 63.09,12.41L92.66,29.51C92.87,29.26 93.08,29.01 93.31,28.78C95.04,27.048 97.392,26.075 99.84,26.08C102.39,26.08 104.7,27.11 106.37,28.78C108.102,30.51 109.075,32.862 109.07,35.31C109.07,37.86 108.04,40.16 106.37,41.83C104.935,43.267 103.064,44.188 101.05,44.45L101.05,78.36C103.12,78.63 104.97,79.58 106.37,80.98C108.04,82.65 109.07,84.96 109.07,87.5C109.07,87.503 109.07,87.505 109.07,87.508C109.07,92.567 104.907,96.73 99.848,96.73C99.845,96.73 99.843,96.73 99.84,96.73C97.07,96.734 94.44,95.488 92.69,93.34L63.08,110.46C63.44,111.45 63.64,112.52 63.64,113.64C63.64,116.19 62.61,118.5 60.94,120.17C59.21,121.902 56.858,122.875 54.41,122.87C51.86,122.87 49.55,121.84 47.88,120.17C46.21,118.5 45.18,116.19 45.18,113.64C45.18,112.5 45.39,111.4 45.77,110.39L16.35,93.38C14.598,95.511 11.979,96.746 9.22,96.74C6.67,96.74 4.36,95.71 2.69,94.04C1.03,92.37 0,90.06 0,87.51C0,84.96 1.03,82.66 2.7,80.99C4.119,79.57 5.962,78.65 7.95,78.37L7.95,44.44C5.961,44.165 4.116,43.244 2.7,41.82C0.966,40.095 -0.006,37.746 0,35.3C0,32.75 1.03,30.44 2.7,28.77C4.43,27.038 6.782,26.065 9.23,26.07C12.006,26.065 14.64,27.316 16.39,29.47L45.78,12.48ZM61.54,15.09C60.139,16.798 58.168,17.946 55.99,18.32L55.99,37.6L74.32,48.22L91.17,38.48C90.8,37.49 90.61,36.41 90.61,35.3C90.61,34.22 90.8,33.17 91.14,32.21L61.54,15.09ZM98.23,44.39C96.365,44.066 94.646,43.171 93.31,41.83C93.12,41.64 92.94,41.45 92.77,41.24L75.95,50.96L75.95,71.74L92.84,81.49C92.99,81.32 93.14,81.15 93.3,80.99C94.637,79.651 96.356,78.756 98.22,78.43L98.22,44.39L98.23,44.39ZM91.16,90.66C90.8,89.68 90.61,88.62 90.61,87.52C90.61,86.36 90.82,85.25 91.22,84.22L74.88,74.79L55.99,85.77L55.99,104.56C58.168,104.934 60.139,106.082 61.54,107.79L91.16,90.66ZM47.34,107.72C48.732,106.059 50.666,104.94 52.8,104.56L52.8,85.68L33.84,74.68L17.75,83.97C18.2,85.06 18.46,86.26 18.46,87.52C18.46,88.64 18.26,89.71 17.9,90.7L47.34,107.72ZM10.76,78.41C12.69,78.73 14.42,79.66 15.75,80.99C15.85,81.09 15.94,81.19 16.03,81.29L32.42,71.83L32.42,50.36L16.64,40.8C16.37,41.17 16.07,41.51 15.75,41.83C14.394,43.186 12.65,44.088 10.76,44.41L10.76,78.41ZM9.24,41.34C9.28,41.34 9.32,41.33 9.36,41.33L9.44,41.33C10.968,41.282 12.421,40.652 13.5,39.57C14.634,38.439 15.271,36.901 15.27,35.3C15.27,33.63 14.59,32.12 13.5,31.03C12.41,29.94 10.9,29.26 9.23,29.26C7.56,29.26 6.05,29.94 4.96,31.03C3.826,32.161 3.189,33.699 3.19,35.3C3.19,36.97 3.87,38.48 4.96,39.57C6.094,40.706 7.635,41.343 9.24,41.34ZM58.68,109.39C57.549,108.256 56.011,107.619 54.41,107.62C52.74,107.62 51.23,108.3 50.14,109.39C49.05,110.48 48.37,111.99 48.37,113.66C48.37,115.33 49.05,116.84 50.14,117.93C51.23,119.02 52.74,119.7 54.41,119.7C56.08,119.7 57.59,119.02 58.68,117.93C59.77,116.84 60.45,115.33 60.45,113.66C60.45,111.99 59.78,110.48 58.68,109.39ZM58.68,4.96C57.549,3.826 56.011,3.189 54.41,3.19C52.74,3.19 51.23,3.87 50.14,4.96C49.05,6.05 48.37,7.56 48.37,9.23C48.37,10.9 49.05,12.41 50.14,13.5C51.271,14.634 52.809,15.271 54.41,15.27C56.08,15.27 57.59,14.59 58.68,13.5C59.814,12.369 60.451,10.831 60.45,9.23C60.45,7.56 59.78,6.05 58.68,4.96ZM104.1,83.25C102.969,82.116 101.431,81.479 99.83,81.48C98.16,81.48 96.65,82.16 95.56,83.25C94.426,84.381 93.789,85.919 93.79,87.52C93.79,89.19 94.47,90.7 95.56,91.79C96.691,92.924 98.229,93.561 99.83,93.56C101.5,93.56 103.01,92.88 104.1,91.79C105.234,90.659 105.871,89.121 105.87,87.52C105.87,85.85 105.2,84.34 104.1,83.25ZM13.5,83.25C12.41,82.16 10.9,81.48 9.23,81.48C7.56,81.48 6.05,82.16 4.96,83.25C3.826,84.381 3.189,85.919 3.19,87.52C3.19,89.19 3.87,90.7 4.96,91.79C6.05,92.88 7.56,93.56 9.23,93.56C10.9,93.56 12.41,92.88 13.5,91.79C14.634,90.659 15.271,89.121 15.27,87.52C15.267,85.919 14.63,84.383 13.5,83.25ZM94.45,38.03C94.53,38.11 94.59,38.21 94.65,38.31C94.71,38.41 94.75,38.51 94.79,38.62C95.02,38.96 95.28,39.28 95.56,39.57C96.691,40.704 98.229,41.341 99.83,41.34C101.5,41.34 103.01,40.66 104.1,39.57C105.234,38.439 105.871,36.901 105.87,35.3C105.87,33.63 105.19,32.12 104.1,31.03C102.969,29.896 101.431,29.259 99.83,29.26C98.16,29.26 96.65,29.94 95.56,31.03C94.426,32.161 93.789,33.699 93.79,35.3C93.8,36.29 94.04,37.21 94.45,38.03ZM35.41,71.49C35.637,71.734 35.787,72.041 35.84,72.37L52.97,82.44L52.97,62.56L35.41,52.11L35.41,71.49ZM72.97,52.38L55.96,62.57L55.96,82.46L72.97,72.41L72.97,52.38ZM54.39,39.99L37.79,49.92L54.48,59.97L70.69,50.13L54.39,39.99Z" style="fill:rgb(233,77,109);"/>
</svg>
