<?xml version="1.0" encoding="UTF-8" standalone="no"?>
<!DOCTYPE svg PUBLIC "-//W3C//DTD SVG 1.1//EN" "http://www.w3.org/Graphics/SVG/1.1/DTD/svg11.dtd">
<svg width="100%" height="100%" viewBox="0 0 60 60" version="1.1" xmlns="http://www.w3.org/2000/svg" xmlns:xlink="http://www.w3.org/1999/xlink" xml:space="preserve" xmlns:serif="http://www.serif.com/" style="fill-rule:evenodd;clip-rule:evenodd;stroke-linejoin:round;stroke-miterlimit:2;">
    <g transform="matrix(0.714286,0,0,0.714286,-4.28571,-4.28571)">
        <path d="M82,6L14,6C9.6,6 6,9.6 6,14L6,62C6,66.4 9.6,70 14,70L82,70C86.4,70 90,66.4 90,62L90,14C90,9.6 86.4,6 82,6ZM48,62C46.3,62 45,60.7 45,59C45,57.3 46.3,56 48,56C49.7,56 51,57.3 51,59C51,60.7 49.7,62 48,62ZM86,48L10,48L10,14C10,11.8 11.8,10 14,10L82,10C84.2,10 86,11.8 86,14L86,48Z" style="fill:rgb(233,78,109);fill-rule:nonzero;"/>
        <path d="M58.4,74.5L54.4,75.1L56.3,86L39.7,86L41.4,75.1L37.4,74.5L35.8,85.4C35.6,86.6 36,87.7 36.7,88.6C37.4,89.5 38.6,90 39.7,90L56.2,90C57.4,90 58.5,89.5 59.2,88.6C59.9,87.7 60.3,86.5 60.1,85.4L58.4,74.5Z" style="fill:rgb(233,78,109);fill-rule:nonzero;"/>
        <path d="M56.8,25L61.1,29.2L56.8,33.5L59.7,36.3L66.7,29.2L59.7,22.2L56.8,25Z" style="fill:rgb(233,78,109);fill-rule:nonzero;"/>
        <g transform="matrix(0.273,-0.962,0.962,0.273,6.834,67.4774)">
            <rect x="33.3" y="27.2" width="29.5" height="4" style="fill:rgb(233,78,109);"/>
        </g>
        <path d="M35.5,22.2L28.4,29.2L35.5,36.3L38.3,33.5L34.1,29.2L38.3,25L35.5,22.2Z" style="fill:rgb(233,78,109);fill-rule:nonzero;"/>
    </g>
</svg>
