<?xml version="1.0" encoding="UTF-8" standalone="no"?>
<!DOCTYPE svg PUBLIC "-//W3C//DTD SVG 1.1//EN" "http://www.w3.org/Graphics/SVG/1.1/DTD/svg11.dtd">
<svg width="100%" height="100%" viewBox="0 0 60 60" version="1.1" xmlns="http://www.w3.org/2000/svg" xmlns:xlink="http://www.w3.org/1999/xlink" xml:space="preserve" xmlns:serif="http://www.serif.com/" style="fill-rule:evenodd;clip-rule:evenodd;stroke-linejoin:round;stroke-miterlimit:2;">
    <g transform="matrix(1.25,0,0,1.25,-7.5,1.875)">
        <g transform="matrix(1,0,0,1,0,-7.5)">
            <path d="M48.93,6.64C48.78,6.25 48.41,6 48,6L12,6C11.59,6 11.22,6.25 11.07,6.64L6.31,19L53.68,19L48.93,6.64Z" style="fill:rgb(233,78,109);fill-rule:nonzero;"/>
        </g>
        <g transform="matrix(1,0,0,1,0,-7.5)">
            <path d="M6,30L54,30L54,21L6,21L6,30ZM47,23.5C48.1,23.5 49,24.4 49,25.5C49,26.61 48.1,27.5 47,27.5C45.89,27.5 45,26.61 45,25.5C45,24.4 45.89,23.5 47,23.5ZM28,23.73C28,23.17 28.45,22.73 29,22.73C29.55,22.73 30,23.17 30,23.73L30,27.28C30,27.83 29.55,28.28 29,28.28C28.45,28.28 28,27.83 28,27.28L28,23.73ZM20,23.73C20,23.17 20.45,22.73 21,22.73C21.55,22.73 22,23.17 22,23.73L22,27.28C22,27.83 21.55,28.28 21,28.28C20.45,28.28 20,27.83 20,27.28L20,23.73ZM12,23.73C12,23.17 12.45,22.73 13,22.73C13.55,22.73 14,23.17 14,23.73L14,27.28C14,27.83 13.55,28.28 13,28.28C12.45,28.28 12,27.83 12,27.28L12,23.73Z" style="fill:rgb(233,78,109);fill-rule:nonzero;"/>
        </g>
        <g transform="matrix(1,0,0,1,0,-7.5)">
            <path d="M6,41L54,41L54,32L6,32L6,41ZM47,34.5C48.1,34.5 49,35.4 49,36.5C49,37.61 48.1,38.5 47,38.5C45.89,38.5 45,37.61 45,36.5C45,35.4 45.89,34.5 47,34.5ZM28,34.73C28,34.17 28.45,33.73 29,33.73C29.55,33.73 30,34.17 30,34.73L30,38.28C30,38.83 29.55,39.28 29,39.28C28.45,39.28 28,38.83 28,38.28L28,34.73ZM20,34.73C20,34.17 20.45,33.73 21,33.73C21.55,33.73 22,34.17 22,34.73L22,38.28C22,38.83 21.55,39.28 21,39.28C20.45,39.28 20,38.83 20,38.28L20,34.73ZM12,34.73C12,34.17 12.45,33.73 13,33.73C13.55,33.73 14,34.17 14,34.73L14,38.28C14,38.83 13.55,39.28 13,39.28C12.45,39.28 12,38.83 12,38.28L12,34.73Z" style="fill:rgb(233,78,109);fill-rule:nonzero;"/>
        </g>
        <g transform="matrix(1,0,0,1,0,-7.5)">
            <path d="M6,52C6,53.1 6.9,54 8,54L52,54C53.1,54 54,53.1 54,52L54,43L6,43L6,52ZM47,46.5C48.1,46.5 49,47.4 49,48.5C49,49.61 48.1,50.5 47,50.5C45.89,50.5 45,49.61 45,48.5C45,47.4 45.89,46.5 47,46.5ZM28,46.73C28,46.17 28.45,45.73 29,45.73C29.55,45.73 30,46.17 30,46.73L30,50.28C30,50.83 29.55,51.28 29,51.28C28.45,51.28 28,50.83 28,50.28L28,46.73ZM20,46.73C20,46.17 20.45,45.73 21,45.73C21.55,45.73 22,46.17 22,46.73L22,50.28C22,50.83 21.55,51.28 21,51.28C20.45,51.28 20,50.83 20,50.28L20,46.73ZM12,46.73C12,46.17 12.45,45.73 13,45.73C13.55,45.73 14,46.17 14,46.73L14,50.28C14,50.83 13.55,51.28 13,51.28C12.45,51.28 12,50.83 12,50.28L12,46.73Z" style="fill:rgb(233,78,109);fill-rule:nonzero;"/>
        </g>
    </g>
</svg>
