<svg width="64" height="64" viewBox="0 0 64 64" fill="none" xmlns="http://www.w3.org/2000/svg">
<path d="M64 46.6847C30.5402 51.0575 6.65836 56.3097 6.30508 34.7516C6.30508 34.7516 7.03519 26.3984 17.2804 25.8724C17.2804 25.8724 17.6258 18.4535 25.453 17.6135C29.661 17.1581 34.442 21.4917 34.9602 26.053C34.9602 26.053 45.3153 24.1374 45.7628 34.2334C45.9198 37.7506 45.1269 43.7328 35.1408 43.4737C35.1408 43.4737 29.3626 42.6887 28.5776 33.7545C26.9525 51.0497 51.957 50.0448 52.3181 34.3355C52.4751 27.5446 48.1258 20.5575 38.3282 21.8686C32.9583 8.35747 18.6621 9.13469 13.3393 21.6644C5.73197 21.6644 -0.0854089 27.5211 0.000949026 35.1677C0.291426 59.7797 34.5441 52.3607 64 46.6847Z" fill="white"/>
</svg>
