<svg width="24" height="24" viewBox="0 0 24 24" fill="none" xmlns="http://www.w3.org/2000/svg">
<rect width="24" height="24" fill="#333333"/>
<path d="M6.4438 10.9874L3.10197 12.1846L6.4438 13.3732V14.424L1.99951 12.6756V11.6851L6.4438 9.93665V10.9874Z" fill="#808080"/>
<path d="M10.3892 14.6996C10.3892 15.4059 10.26 15.9141 10.0102 16.2155C9.75184 16.517 9.3298 16.6634 8.74412 16.6634H7.41772V15.716H8.3996C8.67522 15.716 8.87332 15.6385 8.98528 15.4834C9.09725 15.3284 9.15754 15.07 9.15754 14.6996V11.1166H7.90866V10.1692H10.3892V14.6996ZM10.3892 9.31654H9.15754V7.87817H10.3892V9.31654Z" fill="#E94E6D"/>
<path d="M12 10.1692H13.0249L13.5848 13.778L14.093 11.4008H15.0921L15.5916 13.778L16.1601 10.1692H17.185L16.3323 14.8805H15.161L14.5925 12.4344L14.024 14.8805H12.8527L12 10.1692Z" fill="#E94E6D"/>
<path d="M17.5559 10.9874V9.93665L22.0002 11.6851V12.6756L17.5559 14.424V13.3732L20.8977 12.1846L17.5559 10.9874Z" fill="#808080"/>
</svg>
