<svg width="92" height="92" viewBox="0 0 92 92" fill="none" xmlns="http://www.w3.org/2000/svg">
<path d="M46.0005 54.1393C50.5377 54.1393 54.2159 50.4612 54.2159 45.924C54.2159 41.3868 50.5377 37.7086 46.0005 37.7086C41.4633 37.7086 37.7852 41.3868 37.7852 45.924C37.7852 50.4612 41.4633 54.1393 46.0005 54.1393Z" fill="white"/>
<path fill-rule="evenodd" clip-rule="evenodd" d="M46.0006 29.2205C57.0308 29.2205 67.2776 30.8032 75.0036 33.463C84.3124 36.6678 90.0358 41.5254 90.0358 45.924C90.0358 50.5076 83.9701 55.6682 73.9737 58.9802C66.4162 61.4841 56.4711 62.7913 46.0006 62.7913C35.2654 62.7913 25.0999 61.5644 17.4572 58.9527C7.78783 55.6477 1.96387 50.4203 1.96387 45.924C1.96387 41.5611 7.42854 36.741 16.6065 33.5411C24.3613 30.8374 34.8611 29.2205 45.9991 29.2205H46.0006Z" stroke="white" stroke-width="2.73408"/>
<path fill-rule="evenodd" clip-rule="evenodd" d="M31.4596 37.6204C36.9701 28.0653 43.4599 19.9795 49.6238 14.6154C57.0503 8.15243 64.1177 5.62136 67.9279 7.81853C71.8988 10.1084 73.3389 17.9412 71.2141 28.2551C69.6092 36.053 65.7717 45.3209 60.5409 54.3912C55.1777 63.6908 49.0367 71.8841 42.9568 77.1984C35.2634 83.9237 27.8254 86.3575 23.9304 84.1112C20.1508 81.9332 18.7054 74.79 20.5186 65.2406C22.0506 57.1722 25.8952 47.2688 31.4578 37.6202L31.4596 37.6204Z" stroke="white" stroke-width="2.73408"/>
<path fill-rule="evenodd" clip-rule="evenodd" d="M31.4733 54.4156C25.9472 44.8713 22.1848 35.2086 20.6143 27.1896C18.7239 17.5278 20.0605 10.1406 23.8673 7.93704C27.8342 5.64047 35.3395 8.30451 43.2139 15.2964C49.1675 20.5826 55.281 28.5343 60.5271 37.5961C65.9056 46.8867 69.9367 56.2991 71.5049 64.2205C73.4892 74.2448 71.8832 81.904 67.9917 84.1567C64.2159 86.3425 57.3064 84.0283 49.9388 77.6881C43.7138 72.3316 37.0539 64.0546 31.4733 54.4154V54.4156Z" stroke="white" stroke-width="2.73408"/>
</svg>
