<?xml version="1.0" standalone="no"?>
<!DOCTYPE svg PUBLIC "-//W3C//DTD SVG 20010904//EN"
 "http://www.w3.org/TR/2001/REC-SVG-20010904/DTD/svg10.dtd">
<svg version="1.0" xmlns="http://www.w3.org/2000/svg"
 width="260.000000pt" height="260.000000pt" viewBox="0 0 260.000000 260.000000"
 preserveAspectRatio="xMidYMid meet">
<metadata>
Created by potrace 1.14, written by Peter Selinger 2001-2017
</metadata>
<g transform="translate(0.000000,260.000000) scale(0.100000,-0.100000)"
fill="#000000" stroke="none">
<path d="M930 1777 l0 -93 80 0 80 0 0 93 0 93 -80 0 -80 0 0 -93z"/>
<path d="M515 1581 c-22 -10 -147 -60 -277 -111 l-238 -93 0 -63 c0 -50 4 -65
18 -73 15 -8 326 -130 499 -197 l62 -23 0 67 0 68 -72 26 c-40 14 -126 45
-192 69 -66 23 -131 46 -145 51 -22 8 4 20 190 87 l215 77 3 67 c3 75 2 76
-63 48z"/>
<path d="M2022 1533 l3 -68 215 -77 c186 -66 212 -77 190 -86 -14 -5 -112 -40
-217 -78 l-193 -68 0 -68 0 -68 63 24 c152 58 354 137 372 146 11 5 47 20 80
33 l60 23 3 66 3 65 -236 92 c-129 50 -256 101 -281 111 -25 11 -50 20 -55 20
-6 0 -9 -29 -7 -67z"/>
<path d="M795 1570 c-30 -5 -29 -2 -26 -95 1 -25 3 -25 81 -25 l81 0 -1 -259
c-2 -339 -1 -338 -156 -340 l-70 -1 0 -61 0 -61 131 4 c117 3 134 5 169 27 25
16 46 40 60 70 20 44 21 60 21 395 l0 349 -131 1 c-71 1 -143 -1 -159 -4z"/>
<path d="M1309 1570 c-5 -3 -7 -15 -5 -25 35 -188 48 -255 61 -330 8 -49 17
-103 20 -120 3 -16 10 -54 16 -83 l11 -53 76 3 76 3 35 152 c19 84 37 151 39
149 2 -2 17 -62 33 -132 17 -71 32 -136 34 -144 2 -8 4 -18 4 -22 1 -5 36 -8
79 -8 67 0 78 2 79 18 1 9 4 28 6 42 3 14 10 52 16 85 12 66 18 97 26 135 2
14 7 41 10 60 3 19 12 71 21 115 23 122 27 155 17 156 -38 5 -106 3 -115 -2
-6 -4 -12 -18 -14 -32 -5 -50 -55 -363 -62 -392 -7 -25 -12 -8 -35 100 -15 72
-27 138 -27 148 0 12 -9 17 -32 18 -50 2 -101 0 -105 -5 -3 -2 -15 -57 -29
-123 -13 -65 -28 -129 -33 -143 l-9 -25 -2 25 c-1 14 -3 36 -6 50 -2 14 -9 57
-15 95 -15 97 -18 116 -24 145 -3 14 -7 48 -11 75 -3 28 -9 54 -14 59 -10 10
-107 14 -121 6z"/>
</g>
</svg>
