<?xml version="1.0" encoding="UTF-8" standalone="no"?>
<!DOCTYPE svg PUBLIC "-//W3C//DTD SVG 1.1//EN" "http://www.w3.org/Graphics/SVG/1.1/DTD/svg11.dtd">
<svg width="100%" height="100%" viewBox="0 0 146 164" version="1.1" xmlns="http://www.w3.org/2000/svg" xmlns:xlink="http://www.w3.org/1999/xlink" xml:space="preserve" xmlns:serif="http://www.serif.com/" style="fill-rule:evenodd;clip-rule:evenodd;stroke-linejoin:round;stroke-miterlimit:2;">
    <g transform="matrix(1,0,0,1,-0.158491,-1.51157)">
        <path d="M49.22,115.5C40.689,106.891 35.93,95.229 36,83.11C35.969,70.989 40.819,59.351 49.45,50.84C53.291,47.426 55.492,42.525 55.492,37.386C55.492,27.512 47.366,19.386 37.492,19.386C32.38,19.386 27.503,21.564 24.09,25.37C-7.681,56.953 -7.839,109.085 23.74,140.86C27.153,144.674 32.035,146.856 37.153,146.856C47.027,146.856 55.153,138.731 55.153,128.856C55.153,123.768 52.995,118.911 49.22,115.5Z" style="fill:rgb(255,218,0);fill-rule:nonzero;"/>
        <path d="M49.45,50.84C67.265,33.204 96.421,33.308 114.11,51.07C117.525,54.94 122.445,57.16 127.606,57.16C137.481,57.16 145.606,49.034 145.606,39.16C145.606,34.028 143.412,29.134 139.58,25.72C124.294,10.236 103.419,1.512 81.661,1.512C60.132,1.512 39.46,10.053 24.21,25.25C20.334,28.665 18.11,33.589 18.11,38.755C18.11,48.63 26.235,56.755 36.11,56.755C41.19,56.755 46.039,54.605 49.45,50.84Z" style="fill:rgb(103,179,255);fill-rule:nonzero;"/>
        <path d="M114,115.73C105.394,124.278 93.729,129.055 81.6,129C69.471,129.018 57.833,124.149 49.33,115.5C45.916,111.659 41.015,109.458 35.876,109.458C26.002,109.458 17.876,117.584 17.876,127.458C17.876,132.57 20.054,137.447 23.86,140.86C39.171,156.34 60.061,165.061 81.834,165.061C103.382,165.061 124.076,156.519 139.35,141.32C142.763,137.939 144.685,133.329 144.685,128.525C144.685,118.645 136.555,110.515 126.675,110.515C121.93,110.515 117.371,112.39 114,115.73Z" style="fill:rgb(235,90,104);fill-rule:nonzero;"/>
        <path d="M49.45,50.84C46.076,54.21 41.498,56.105 36.73,56.105C26.855,56.105 18.73,47.979 18.73,38.105C18.73,28.23 26.855,20.105 36.73,20.105C41.552,20.105 46.178,22.043 49.56,25.48C56.45,32.482 56.4,43.898 49.45,50.84Z" style="fill:rgb(71,161,255);fill-rule:nonzero;"/>
        <path d="M49.1,140.86C45.727,144.227 41.151,146.12 36.385,146.12C26.51,146.12 18.385,137.994 18.385,128.12C18.385,118.245 26.51,110.12 36.385,110.12C41.209,110.12 45.837,112.059 49.22,115.5C56.107,122.505 56.053,133.921 49.1,140.86Z" style="fill:rgb(213,70,95);fill-rule:nonzero;"/>
    </g>
</svg>
