<?xml version="1.0" encoding="UTF-8" standalone="no"?>
<!DOCTYPE svg PUBLIC "-//W3C//DTD SVG 1.1//EN" "http://www.w3.org/Graphics/SVG/1.1/DTD/svg11.dtd">
<svg width="100%" height="100%" viewBox="0 0 169 195" version="1.1" xmlns="http://www.w3.org/2000/svg" xmlns:xlink="http://www.w3.org/1999/xlink" xml:space="preserve" xmlns:serif="http://www.serif.com/" style="fill-rule:evenodd;clip-rule:evenodd;stroke-linejoin:round;stroke-miterlimit:2;">
    <g transform="matrix(1,0,0,1,-30.3,-18.5)">
        <path d="M30.3,164L114.3,212.5L198.3,164L198.3,67L114.3,18.5L30.3,67L30.3,164Z" style="fill:rgb(70,158,162);fill-rule:nonzero;"/>
        <path d="M105.7,30.1L44.7,65.3C44.8,66.398 44.8,67.502 44.7,68.6L105.6,103.8C110.726,100.01 117.774,100.01 122.9,103.8L183.8,68.6C183.7,67.502 183.7,66.398 183.8,65.3L123,30.1C117.874,33.89 110.826,33.89 105.7,30.1ZM189.7,78.3L128.7,113.9C129.376,120.217 125.893,126.292 120.1,128.9L120.2,198.9C121.186,199.335 122.125,199.871 123,200.5L183.9,165.3C183.224,158.983 186.707,152.908 192.5,150.3L192.5,79.9C191.525,79.443 190.589,78.908 189.7,78.3ZM38.9,78.7C38.025,79.329 37.086,79.865 36.1,80.3L36.1,150.7C41.971,153.218 45.493,159.361 44.7,165.7L105.6,200.9C106.475,200.271 107.414,199.735 108.4,199.3L108.4,128.9C102.529,126.382 99.007,120.239 99.8,113.9L38.9,78.7Z" style="fill:rgb(106,202,209);fill-rule:nonzero;"/>
        <path d="M114.3,29L189.4,72.4L189.4,159.1L114.3,202.5L39.2,159.1L39.2,72.3L114.3,29M114.3,18.7L30.3,67.2L30.3,164.2L114.3,212.7L198.3,164.2L198.3,67.2L114.3,18.7Z" style="fill:rgb(70,158,162);fill-rule:nonzero;"/>
        <path d="M114.9,132L113.7,132C113.687,132 113.673,132 113.66,132C105.069,132 98,124.931 98,116.34C98,116.327 98,116.313 98,116.3L98,115.1C98,115.087 98,115.073 98,115.06C98,106.469 105.069,99.4 113.66,99.4C113.673,99.4 113.687,99.4 113.7,99.4L114.9,99.4C114.913,99.4 114.927,99.4 114.94,99.4C123.531,99.4 130.6,106.469 130.6,115.06C130.6,115.073 130.6,115.087 130.6,115.1L130.6,116.3C130.6,116.313 130.6,116.327 130.6,116.34C130.6,124.931 123.531,132 114.94,132C114.927,132 114.913,132 114.9,132ZM114.9,196.5L113.7,196.5C108.027,196.483 102.773,199.551 100,204.5L114.3,212.7L128.6,204.5C125.827,199.551 120.573,196.483 114.9,196.5ZM198.4,148L197.8,148C197.787,148 197.773,148 197.76,148C189.169,148 182.1,155.069 182.1,163.66C182.1,163.673 182.1,163.687 182.1,163.7L182.1,164.9C182.086,167.565 182.776,170.187 184.1,172.5L198.4,164.2L198.4,148ZM184.1,59C182.787,61.318 182.098,63.937 182.1,66.6L182.1,67.8C182.1,67.813 182.1,67.827 182.1,67.84C182.1,76.431 189.169,83.5 197.76,83.5C197.773,83.5 197.787,83.5 197.8,83.5L198.4,83.5L198.4,67.2L184.1,59ZM114.3,18.7L100,26.9C102.759,31.875 108.011,34.98 113.7,35L114.9,35C120.573,35.017 125.827,31.949 128.6,27L114.3,18.7ZM44.6,58.9L30.3,67.2L30.3,83.5L30.9,83.5C30.913,83.5 30.927,83.5 30.94,83.5C39.531,83.5 46.6,76.431 46.6,67.84C46.6,67.827 46.6,67.813 46.6,67.8L46.6,66.6C46.566,63.909 45.88,61.267 44.6,58.9ZM30.9,148L30.3,148L30.3,164.2L44.6,172.5C45.913,170.182 46.602,167.563 46.6,164.9L46.6,163.7C46.6,163.687 46.6,163.673 46.6,163.66C46.6,155.069 39.531,148 30.94,148C30.927,148 30.913,148 30.9,148Z" style="fill:rgb(70,158,162);fill-rule:nonzero;"/>
        <path d="M114.3,213.2L114.3,116.1L30.3,67.6L30.3,164.7L114.3,213.2Z" style="fill:rgb(8,59,84);fill-opacity:0.15;fill-rule:nonzero;"/>
        <path d="M198.4,163.8L198.4,66.8L114.4,115.3L114.4,212.4L198.4,163.8Z" style="fill:rgb(8,59,84);fill-opacity:0.05;fill-rule:nonzero;"/>
    </g>
</svg>
