<?xml version="1.0" encoding="UTF-8" standalone="no"?>
<!DOCTYPE svg PUBLIC "-//W3C//DTD SVG 1.1//EN" "http://www.w3.org/Graphics/SVG/1.1/DTD/svg11.dtd">
<svg width="100%" height="100%" viewBox="0 0 629 629" version="1.1" xmlns="http://www.w3.org/2000/svg" xmlns:xlink="http://www.w3.org/1999/xlink" xml:space="preserve" xmlns:serif="http://www.serif.com/" style="fill-rule:evenodd;clip-rule:evenodd;stroke-linejoin:round;stroke-miterlimit:2;">
    <g transform="matrix(0.81482,0,0,0.803464,58.2392,65.8099)">
        <path d="M71.788,366.47C71.788,386.294 87.858,402.364 107.682,402.364L179.47,402.364C199.294,402.364 215.364,386.294 215.364,366.47L215.364,222.894C215.364,203.07 231.434,187 251.258,187C271.082,187 287.152,203.07 287.152,222.894L287.152,366.47C287.152,386.294 303.222,402.364 323.046,402.364L394.834,402.364C414.658,402.364 430.728,386.294 430.728,366.47L430.728,222.894C430.728,203.07 446.798,187 466.622,187C486.446,187 502.516,203.07 502.516,222.894L502.516,438.258C502.516,458.082 486.446,474.152 466.622,474.152L35.894,474.152C16.07,474.152 0,458.082 0,438.258L0,222.894C0,203.07 16.07,187 35.894,187C55.718,187 71.788,203.07 71.788,222.894L71.788,366.47ZM581.142,482.698C607.573,482.698 629,461.271 629,434.84C629,408.408 607.573,386.981 581.142,386.981C554.71,386.981 533.283,408.408 533.283,434.84C533.283,461.271 554.71,482.698 581.142,482.698Z" style="fill:white;"/>
    </g>
</svg>
